<?xml version="1.0" encoding="UTF-8" standalone="no"?>
<!-- Created with Inkscape (http://www.inkscape.org/) -->

<svg
   xmlns:dc="http://purl.org/dc/elements/1.1/"
   xmlns:cc="http://creativecommons.org/ns#"
   xmlns:rdf="http://www.w3.org/1999/02/22-rdf-syntax-ns#"
   xmlns:svg="http://www.w3.org/2000/svg"
   xmlns="http://www.w3.org/2000/svg"
   xmlns:sodipodi="http://sodipodi.sourceforge.net/DTD/sodipodi-0.dtd"
   xmlns:inkscape="http://www.inkscape.org/namespaces/inkscape"
   width="210mm"
   height="297mm"
   viewBox="0 0 744.09448819 1052.3622047"
   id="svg2"
   version="1.1"
   inkscape:version="0.91 r13725"
   sodipodi:docname="metapupil.svg">
  <defs
     id="defs4" />
  <sodipodi:namedview
     id="base"
     pagecolor="#ffffff"
     bordercolor="#666666"
     borderopacity="1.0"
     inkscape:pageopacity="0.0"
     inkscape:pageshadow="2"
     inkscape:zoom="0.90808219"
     inkscape:cx="374.28571"
     inkscape:cy="547.14286"
     inkscape:document-units="px"
     inkscape:current-layer="layer1"
     showgrid="false"
     inkscape:window-width="1548"
     inkscape:window-height="1116"
     inkscape:window-x="2664"
     inkscape:window-y="53"
     inkscape:window-maximized="0" />
  <metadata
     id="metadata7">
    <rdf:RDF>
      <cc:Work
         rdf:about="">
        <dc:format>image/svg+xml</dc:format>
        <dc:type
           rdf:resource="http://purl.org/dc/dcmitype/StillImage" />
        <dc:title></dc:title>
      </cc:Work>
    </rdf:RDF>
  </metadata>
  <g
     inkscape:label="Layer 1"
     inkscape:groupmode="layer"
     id="layer1">
    <path
       style="fill:#ffffff;stroke:#000000;stroke-width:1;stroke-miterlimit:4;stroke-dasharray:none"
       id="path4136"
       sodipodi:type="arc"
       sodipodi:cx="400.29416"
       sodipodi:cy="423.56448"
       sodipodi:rx="205.37788"
       sodipodi:ry="41.846432"
       sodipodi:start="0"
       sodipodi:end="6.2114933"
       d="m 605.67204,423.56448 a 205.37788,41.846432 0 0 1 -201.69709,41.83971 205.37788,41.846432 0 0 1 -208.92674,-40.34 205.37788,41.846432 0 0 1 194.2083,-43.28566 205.37788,41.846432 0 0 1 215.88796,38.78847"
       sodipodi:open="true" />
    <path
       style="fill:#ffffff;stroke:#000000;stroke-width:0.78725272;stroke-miterlimit:4;stroke-dasharray:none"
       id="path4136-5"
       sodipodi:type="arc"
       sodipodi:cx="404.69946"
       sodipodi:cy="516.06744"
       sodipodi:rx="178.50444"
       sodipodi:ry="29.839495"
       sodipodi:start="0"
       sodipodi:end="6.2114933"
       d="M 583.2039,516.06744 A 178.50444,29.839495 0 0 1 407.89863,545.90215 178.50444,29.839495 0 0 1 226.30969,517.13684 178.50444,29.839495 0 0 1 395.10608,486.27107 178.50444,29.839495 0 0 1 582.74537,513.93002"
       sodipodi:open="true" />
    <path
       style="fill:#ffffff;stroke:#000000;stroke-width:0.64768946;stroke-miterlimit:4;stroke-dasharray:none"
       id="path4136-5-0"
       sodipodi:type="arc"
       sodipodi:cx="411.30658"
       sodipodi:cy="621.78473"
       sodipodi:rx="147.74005"
       sodipodi:ry="24.403242"
       sodipodi:start="0"
       sodipodi:end="6.2114933"
       d="M 559.04663,621.78473 A 147.74005,24.403242 0 0 1 413.95438,646.18405 147.74005,24.403242 0 0 1 263.66144,622.6593 147.74005,24.403242 0 0 1 403.36657,597.41675 147.74005,24.403242 0 0 1 558.66712,620.03671"
       sodipodi:open="true" />
    <path
       style="fill:#ffffff;stroke:#000000;stroke-width:0.46206662;stroke-miterlimit:4;stroke-dasharray:none"
       id="path4136-5-0-1"
       sodipodi:type="arc"
       sodipodi:cx="414.6102"
       sodipodi:cy="709.88232"
       sodipodi:rx="125.80849"
       sodipodi:ry="14.585166"
       sodipodi:start="0"
       sodipodi:end="6.2114933"
       d="M 540.41869,709.88232 A 125.80849,14.585166 0 0 1 416.86494,724.46515 125.80849,14.585166 0 0 1 288.88253,710.40503 125.80849,14.585166 0 0 1 407.84886,695.31824 125.80849,14.585166 0 0 1 540.09551,708.83758"
       sodipodi:open="true" />
    <path
       style="fill:#ffffff;stroke:#000000;stroke-width:0.35706851;stroke-miterlimit:4;stroke-dasharray:none"
       id="path4136-5-0-1-5"
       sodipodi:type="arc"
       sodipodi:cx="419.56543"
       sodipodi:cy="802.38495"
       sodipodi:rx="96.678574"
       sodipodi:ry="11.334045"
       sodipodi:start="0"
       sodipodi:end="6.2114933"
       d="m 516.244,802.38495 a 96.678574,11.334045 0 0 1 -94.94589,11.33222 96.678574,11.334045 0 0 1 -98.34915,-10.92603 96.678574,11.334045 0 0 1 91.42066,-11.72386 96.678574,11.334045 0 0 1 101.62604,10.5058"
       sodipodi:open="true" />
    <path
       style="fill:none;fill-rule:evenodd;stroke:#000000;stroke-width:1px;stroke-linecap:butt;stroke-linejoin:miter;stroke-opacity:1"
       d="M 321.5568,801.28361 165.18329,334.36552"
       id="path4198"
       inkscape:connector-curvature="0" />
    <path
       style="fill:none;fill-rule:evenodd;stroke:#000000;stroke-width:0.84486663px;stroke-linecap:butt;stroke-linejoin:miter;stroke-opacity:1"
       d="M 517.31892,805.73328 626.85065,329.91588"
       id="path4198-2"
       inkscape:connector-curvature="0" />
    <path
       style="fill:none;fill-rule:evenodd;stroke:#000000;stroke-width:1px;stroke-linecap:butt;stroke-linejoin:miter;stroke-opacity:1"
       d="M 518.67552,807.89094 362.30201,340.97285"
       id="path4198-1"
       inkscape:connector-curvature="0" />
    <path
       style="fill:none;fill-rule:evenodd;stroke:#000000;stroke-width:0.84486663px;stroke-linecap:butt;stroke-linejoin:miter;stroke-opacity:1"
       d="M 317.44714,806.83448 426.97887,331.01709"
       id="path4198-2-8"
       inkscape:connector-curvature="0" />
    <path
       style="fill:#ffffff;stroke:#000000;stroke-width:0.35706851;stroke-miterlimit:4;stroke-dasharray:none"
       id="path4136-5-0-1-5-9"
       sodipodi:type="arc"
       sodipodi:cx="504.35956"
       sodipodi:cy="424.66583"
       sodipodi:rx="96.678574"
       sodipodi:ry="11.334045"
       sodipodi:start="0"
       sodipodi:end="6.2114933"
       d="m 601.03813,424.66583 a 96.678574,11.334045 0 0 1 -94.94589,11.33223 96.678574,11.334045 0 0 1 -98.34915,-10.92603 96.678574,11.334045 0 0 1 91.42066,-11.72386 96.678574,11.334045 0 0 1 101.62604,10.5058"
       sodipodi:open="true" />
    <path
       style="fill:#ffffff;stroke:#000000;stroke-width:0.35706851;stroke-miterlimit:4;stroke-dasharray:none"
       id="path4136-5-0-1-5-9-0"
       sodipodi:type="arc"
       sodipodi:cx="482.33514"
       sodipodi:cy="518.26971"
       sodipodi:rx="96.678574"
       sodipodi:ry="11.334045"
       sodipodi:start="0"
       sodipodi:end="6.2114933"
       d="m 579.01372,518.26971 a 96.678574,11.334045 0 0 1 -94.9459,11.33223 96.678574,11.334045 0 0 1 -98.34914,-10.92603 96.678574,11.334045 0 0 1 91.42066,-11.72386 96.678574,11.334045 0 0 1 101.62603,10.5058"
       sodipodi:open="true" />
    <path
       style="fill:#ffffff;stroke:#000000;stroke-width:0.35706851;stroke-miterlimit:4;stroke-dasharray:none"
       id="path4136-5-0-1-5-9-0-2"
       sodipodi:type="arc"
       sodipodi:cx="458.10825"
       sodipodi:cy="622.8858"
       sodipodi:rx="96.678574"
       sodipodi:ry="11.334045"
       sodipodi:start="0"
       sodipodi:end="6.2114933"
       d="m 554.78682,622.8858 a 96.678574,11.334045 0 0 1 -94.9459,11.33223 96.678574,11.334045 0 0 1 -98.34914,-10.92603 96.678574,11.334045 0 0 1 91.42066,-11.72386 96.678574,11.334045 0 0 1 101.62603,10.5058"
       sodipodi:open="true" />
    <path
       style="fill:#ffffff;stroke:#000000;stroke-width:0.35706851;stroke-miterlimit:4;stroke-dasharray:none"
       id="path4136-5-0-1-5-9-0-2-4"
       sodipodi:type="arc"
       sodipodi:cx="438.28622"
       sodipodi:cy="709.88232"
       sodipodi:rx="96.678574"
       sodipodi:ry="11.334045"
       sodipodi:start="0"
       sodipodi:end="6.2114933"
       d="m 534.9648,709.88232 a 96.678574,11.334045 0 0 1 -94.9459,11.33223 96.678574,11.334045 0 0 1 -98.34914,-10.92603 96.678574,11.334045 0 0 1 91.42066,-11.72386 96.678574,11.334045 0 0 1 101.62603,10.5058"
       sodipodi:open="true" />
  </g>
</svg>
